# xmcd CD database file
#
# Track frame offsets:
#	300
#	13887
#	31020
#	44572
#	57788
#	74028
#
# Disc length: 1182 seconds
#
# Revision: 0
# Processed by: cddbd v1.5.2PL0 Copyright (c) Steve Scherf et al.
# Submitted via: jetAudio 7
#
DISCID=52049a06
DTITLE=Taylor Swift - Beautiful Eyes
DYEAR=1900
DGENRE=Country
TTITLE0=Beautiful Eyes
TTITLE1=Should've Said No
TTITLE2=Teardrops On My Guitar
TTITLE3=Picture To Burn
TTITLE4=I'm Only Me When I'm With You
TTITLE5=I Heart?
EXTD=
EXTT0=
EXTT1=
EXTT2=
EXTT3=
EXTT4=
EXTT5=
PLAYORDER=
